<svg xmlns="http://www.w3.org/2000/svg" fill="#000000" class="bi bi-chat-left-dots" viewBox="0 0 16 16" id="Chat-Left-Dots--Streamline-Bootstrap.svg" height="16" width="16"><desc>Chat Left Dots Streamline Icon: https://streamlinehq.com</desc><path d="M14 1a1 1 0 0 1 1 1v8a1 1 0 0 1 -1 1H4.414A2 2 0 0 0 3 11.586l-2 2V2a1 1 0 0 1 1 -1zM2 0a2 2 0 0 0 -2 2v12.793a0.5 0.5 0 0 0 0.854 0.353l2.853 -2.853A1 1 0 0 1 4.414 12H14a2 2 0 0 0 2 -2V2a2 2 0 0 0 -2 -2z" stroke-width="1"></path><path d="M5 6a1 1 0 1 1 -2 0 1 1 0 0 1 2 0m4 0a1 1 0 1 1 -2 0 1 1 0 0 1 2 0m4 0a1 1 0 1 1 -2 0 1 1 0 0 1 2 0" stroke-width="1"></path></svg>