<?xml version="1.0" encoding="utf-8" ?>
<svg baseProfile="tiny" height="390px" version="1.2" width="390px" xmlns="http://www.w3.org/2000/svg" xmlns:ev="http://www.w3.org/2001/xml-events" xmlns:xlink="http://www.w3.org/1999/xlink"><defs /><rect fill="#f8f8f8" height="100%" width="100%" x="0" y="0" /><rect fill="#000000" height="10" width="10" x="10" y="10" /><rect fill="#000000" height="10" width="10" x="20" y="10" /><rect fill="#000000" height="10" width="10" x="30" y="10" /><rect fill="#000000" height="10" width="10" x="40" y="10" /><rect fill="#000000" height="10" width="10" x="50" y="10" /><rect fill="#000000" height="10" width="10" x="60" y="10" /><rect fill="#000000" height="10" width="10" x="70" y="10" /><rect fill="#000000" height="10" width="10" x="110" y="10" /><rect fill="#000000" height="10" width="10" x="120" y="10" /><rect fill="#000000" height="10" width="10" x="140" y="10" /><rect fill="#000000" height="10" width="10" x="270" y="10" /><rect fill="#000000" height="10" width="10" x="280" y="10" /><rect fill="#000000" height="10" width="10" x="310" y="10" /><rect fill="#000000" height="10" width="10" x="320" y="10" /><rect fill="#000000" height="10" width="10" x="330" y="10" /><rect fill="#000000" height="10" width="10" x="340" y="10" /><rect fill="#000000" height="10" width="10" x="350" y="10" /><rect fill="#000000" height="10" width="10" x="360" y="10" /><rect fill="#000000" height="10" width="10" x="370" y="10" /><rect fill="#000000" height="10" width="10" x="10" y="20" /><rect fill="#000000" height="10" width="10" x="70" y="20" /><rect fill="#000000" height="10" width="10" x="100" y="20" /><rect fill="#000000" height="10" width="10" x="110" y="20" /><rect fill="#000000" height="10" width="10" x="130" y="20" /><rect fill="#000000" height="10" width="10" x="140" y="20" /><rect fill="#000000" height="10" width="10" x="150" y="20" /><rect fill="#000000" height="10" width="10" x="170" y="20" /><rect fill="#000000" height="10" width="10" x="190" y="20" /><rect fill="#000000" height="10" width="10" x="210" y="20" /><rect fill="#000000" height="10" width="10" x="230" y="20" /><rect fill="#000000" height="10" width="10" x="240" y="20" /><rect fill="#000000" height="10" width="10" x="250" y="20" /><rect fill="#000000" height="10" width="10" x="280" y="20" /><rect fill="#000000" height="10" width="10" x="290" y="20" /><rect fill="#000000" height="10" width="10" x="310" y="20" /><rect fill="#000000" height="10" width="10" x="370" y="20" /><rect fill="#000000" height="10" width="10" x="10" y="30" /><rect fill="#000000" height="10" width="10" x="30" y="30" /><rect fill="#000000" height="10" width="10" x="40" y="30" /><rect fill="#000000" height="10" width="10" x="50" y="30" /><rect fill="#000000" height="10" width="10" x="70" y="30" /><rect fill="#000000" height="10" width="10" x="90" y="30" /><rect fill="#000000" height="10" width="10" x="100" y="30" /><rect fill="#000000" height="10" width="10" x="120" y="30" /><rect fill="#000000" height="10" width="10" x="130" y="30" /><rect fill="#000000" height="10" width="10" x="240" y="30" /><rect fill="#000000" height="10" width="10" x="270" y="30" /><rect fill="#000000" height="10" width="10" x="280" y="30" /><rect fill="#000000" height="10" width="10" x="310" y="30" /><rect fill="#000000" height="10" width="10" x="330" y="30" /><rect fill="#000000" height="10" width="10" x="340" y="30" /><rect fill="#000000" height="10" width="10" x="350" y="30" /><rect fill="#000000" height="10" width="10" x="370" y="30" /><rect fill="#000000" height="10" width="10" x="10" y="40" /><rect fill="#000000" height="10" width="10" x="30" y="40" /><rect fill="#000000" height="10" width="10" x="40" y="40" /><rect fill="#000000" height="10" width="10" x="50" y="40" /><rect fill="#000000" height="10" width="10" x="70" y="40" /><rect fill="#000000" height="10" width="10" x="90" y="40" /><rect fill="#000000" height="10" width="10" x="110" y="40" /><rect fill="#000000" height="10" width="10" x="130" y="40" /><rect fill="#000000" height="10" width="10" x="140" y="40" /><rect fill="#000000" height="10" width="10" x="190" y="40" /><rect fill="#000000" height="10" width="10" x="220" y="40" /><rect fill="#000000" height="10" width="10" x="230" y="40" /><rect fill="#000000" height="10" width="10" x="240" y="40" /><rect fill="#000000" height="10" width="10" x="280" y="40" /><rect fill="#000000" height="10" width="10" x="310" y="40" /><rect fill="#000000" height="10" width="10" x="330" y="40" /><rect fill="#000000" height="10" width="10" x="340" y="40" /><rect fill="#000000" height="10" width="10" x="350" y="40" /><rect fill="#000000" height="10" width="10" x="370" y="40" /><rect fill="#000000" height="10" width="10" x="10" y="50" /><rect fill="#000000" height="10" width="10" x="30" y="50" /><rect fill="#000000" height="10" width="10" x="40" y="50" /><rect fill="#000000" height="10" width="10" x="50" y="50" /><rect fill="#000000" height="10" width="10" x="70" y="50" /><rect fill="#000000" height="10" width="10" x="90" y="50" /><rect fill="#000000" height="10" width="10" x="120" y="50" /><rect fill="#000000" height="10" width="10" x="130" y="50" /><rect fill="#000000" height="10" width="10" x="170" y="50" /><rect fill="#000000" height="10" width="10" x="180" y="50" /><rect fill="#000000" height="10" width="10" x="210" y="50" /><rect fill="#000000" height="10" width="10" x="220" y="50" /><rect fill="#000000" height="10" width="10" x="250" y="50" /><rect fill="#000000" height="10" width="10" x="260" y="50" /><rect fill="#000000" height="10" width="10" x="270" y="50" /><rect fill="#000000" height="10" width="10" x="280" y="50" /><rect fill="#000000" height="10" width="10" x="290" y="50" /><rect fill="#000000" height="10" width="10" x="310" y="50" /><rect fill="#000000" height="10" width="10" x="330" y="50" /><rect fill="#000000" height="10" width="10" x="340" y="50" /><rect fill="#000000" height="10" width="10" x="350" y="50" /><rect fill="#000000" height="10" width="10" x="370" y="50" /><rect fill="#000000" height="10" width="10" x="10" y="60" /><rect fill="#000000" height="10" width="10" x="70" y="60" /><rect fill="#000000" height="10" width="10" x="90" y="60" /><rect fill="#000000" height="10" width="10" x="140" y="60" /><rect fill="#000000" height="10" width="10" x="150" y="60" /><rect fill="#000000" height="10" width="10" x="180" y="60" /><rect fill="#000000" height="10" width="10" x="200" y="60" /><rect fill="#000000" height="10" width="10" x="220" y="60" /><rect fill="#000000" height="10" width="10" x="260" y="60" /><rect fill="#000000" height="10" width="10" x="270" y="60" /><rect fill="#000000" height="10" width="10" x="310" y="60" /><rect fill="#000000" height="10" width="10" x="370" y="60" /><rect fill="#000000" height="10" width="10" x="10" y="70" /><rect fill="#000000" height="10" width="10" x="20" y="70" /><rect fill="#000000" height="10" width="10" x="30" y="70" /><rect fill="#000000" height="10" width="10" x="40" y="70" /><rect fill="#000000" height="10" width="10" x="50" y="70" /><rect fill="#000000" height="10" width="10" x="60" y="70" /><rect fill="#000000" height="10" width="10" x="70" y="70" /><rect fill="#000000" height="10" width="10" x="90" y="70" /><rect fill="#000000" height="10" width="10" x="110" y="70" /><rect fill="#000000" height="10" width="10" x="130" y="70" /><rect fill="#000000" height="10" width="10" x="150" y="70" /><rect fill="#000000" height="10" width="10" x="170" y="70" /><rect fill="#000000" height="10" width="10" x="190" y="70" /><rect fill="#000000" height="10" width="10" x="210" y="70" /><rect fill="#000000" height="10" width="10" x="230" y="70" /><rect fill="#000000" height="10" width="10" x="250" y="70" /><rect fill="#000000" height="10" width="10" x="270" y="70" /><rect fill="#000000" height="10" width="10" x="290" y="70" /><rect fill="#000000" height="10" width="10" x="310" y="70" /><rect fill="#000000" height="10" width="10" x="320" y="70" /><rect fill="#000000" height="10" width="10" x="330" y="70" /><rect fill="#000000" height="10" width="10" x="340" y="70" /><rect fill="#000000" height="10" width="10" x="350" y="70" /><rect fill="#000000" height="10" width="10" x="360" y="70" /><rect fill="#000000" height="10" width="10" x="370" y="70" /><rect fill="#000000" height="10" width="10" x="90" y="80" /><rect fill="#000000" height="10" width="10" x="100" y="80" /><rect fill="#000000" height="10" width="10" x="120" y="80" /><rect fill="#000000" height="10" width="10" x="130" y="80" /><rect fill="#000000" height="10" width="10" x="140" y="80" /><rect fill="#000000" height="10" width="10" x="150" y="80" /><rect fill="#000000" height="10" width="10" x="180" y="80" /><rect fill="#000000" height="10" width="10" x="190" y="80" /><rect fill="#000000" height="10" width="10" x="200" y="80" /><rect fill="#000000" height="10" width="10" x="210" y="80" /><rect fill="#000000" height="10" width="10" x="220" y="80" /><rect fill="#000000" height="10" width="10" x="230" y="80" /><rect fill="#000000" height="10" width="10" x="250" y="80" /><rect fill="#000000" height="10" width="10" x="260" y="80" /><rect fill="#000000" height="10" width="10" x="290" y="80" /><rect fill="#000000" height="10" width="10" x="10" y="90" /><rect fill="#000000" height="10" width="10" x="30" y="90" /><rect fill="#000000" height="10" width="10" x="40" y="90" /><rect fill="#000000" height="10" width="10" x="50" y="90" /><rect fill="#000000" height="10" width="10" x="60" y="90" /><rect fill="#000000" height="10" width="10" x="70" y="90" /><rect fill="#000000" height="10" width="10" x="110" y="90" /><rect fill="#000000" height="10" width="10" x="130" y="90" /><rect fill="#000000" height="10" width="10" x="140" y="90" /><rect fill="#000000" height="10" width="10" x="170" y="90" /><rect fill="#000000" height="10" width="10" x="200" y="90" /><rect fill="#000000" height="10" width="10" x="220" y="90" /><rect fill="#000000" height="10" width="10" x="270" y="90" /><rect fill="#000000" height="10" width="10" x="310" y="90" /><rect fill="#000000" height="10" width="10" x="320" y="90" /><rect fill="#000000" height="10" width="10" x="330" y="90" /><rect fill="#000000" height="10" width="10" x="340" y="90" /><rect fill="#000000" height="10" width="10" x="350" y="90" /><rect fill="#000000" height="10" width="10" x="40" y="100" /><rect fill="#000000" height="10" width="10" x="60" y="100" /><rect fill="#000000" height="10" width="10" x="100" y="100" /><rect fill="#000000" height="10" width="10" x="110" y="100" /><rect fill="#000000" height="10" width="10" x="150" y="100" /><rect fill="#000000" height="10" width="10" x="160" y="100" /><rect fill="#000000" height="10" width="10" x="180" y="100" /><rect fill="#000000" height="10" width="10" x="190" y="100" /><rect fill="#000000" height="10" width="10" x="210" y="100" /><rect fill="#000000" height="10" width="10" x="220" y="100" /><rect fill="#000000" height="10" width="10" x="230" y="100" /><rect fill="#000000" height="10" width="10" x="250" y="100" /><rect fill="#000000" height="10" width="10" x="260" y="100" /><rect fill="#000000" height="10" width="10" x="280" y="100" /><rect fill="#000000" height="10" width="10" x="290" y="100" /><rect fill="#000000" height="10" width="10" x="310" y="100" /><rect fill="#000000" height="10" width="10" x="320" y="100" /><rect fill="#000000" height="10" width="10" x="330" y="100" /><rect fill="#000000" height="10" width="10" x="350" y="100" /><rect fill="#000000" height="10" width="10" x="360" y="100" /><rect fill="#000000" height="10" width="10" x="10" y="110" /><rect fill="#000000" height="10" width="10" x="30" y="110" /><rect fill="#000000" height="10" width="10" x="50" y="110" /><rect fill="#000000" height="10" width="10" x="60" y="110" /><rect fill="#000000" height="10" width="10" x="70" y="110" /><rect fill="#000000" height="10" width="10" x="90" y="110" /><rect fill="#000000" height="10" width="10" x="100" y="110" /><rect fill="#000000" height="10" width="10" x="110" y="110" /><rect fill="#000000" height="10" width="10" x="130" y="110" /><rect fill="#000000" height="10" width="10" x="140" y="110" /><rect fill="#000000" height="10" width="10" x="150" y="110" /><rect fill="#000000" height="10" width="10" x="160" y="110" /><rect fill="#000000" height="10" width="10" x="170" y="110" /><rect fill="#000000" height="10" width="10" x="180" y="110" /><rect fill="#000000" height="10" width="10" x="200" y="110" /><rect fill="#000000" height="10" width="10" x="220" y="110" /><rect fill="#000000" height="10" width="10" x="260" y="110" /><rect fill="#000000" height="10" width="10" x="270" y="110" /><rect fill="#000000" height="10" width="10" x="300" y="110" /><rect fill="#000000" height="10" width="10" x="310" y="110" /><rect fill="#000000" height="10" width="10" x="330" y="110" /><rect fill="#000000" height="10" width="10" x="340" y="110" /><rect fill="#000000" height="10" width="10" x="350" y="110" /><rect fill="#000000" height="10" width="10" x="360" y="110" /><rect fill="#000000" height="10" width="10" x="370" y="110" /><rect fill="#000000" height="10" width="10" x="10" y="120" /><rect fill="#000000" height="10" width="10" x="20" y="120" /><rect fill="#000000" height="10" width="10" x="40" y="120" /><rect fill="#000000" height="10" width="10" x="80" y="120" /><rect fill="#000000" height="10" width="10" x="90" y="120" /><rect fill="#000000" height="10" width="10" x="100" y="120" /><rect fill="#000000" height="10" width="10" x="120" y="120" /><rect fill="#000000" height="10" width="10" x="160" y="120" /><rect fill="#000000" height="10" width="10" x="180" y="120" /><rect fill="#000000" height="10" width="10" x="190" y="120" /><rect fill="#000000" height="10" width="10" x="200" y="120" /><rect fill="#000000" height="10" width="10" x="210" y="120" /><rect fill="#000000" height="10" width="10" x="220" y="120" /><rect fill="#000000" height="10" width="10" x="230" y="120" /><rect fill="#000000" height="10" width="10" x="250" y="120" /><rect fill="#000000" height="10" width="10" x="260" y="120" /><rect fill="#000000" height="10" width="10" x="290" y="120" /><rect fill="#000000" height="10" width="10" x="320" y="120" /><rect fill="#000000" height="10" width="10" x="330" y="120" /><rect fill="#000000" height="10" width="10" x="350" y="120" /><rect fill="#000000" height="10" width="10" x="370" y="120" /><rect fill="#000000" height="10" width="10" x="10" y="130" /><rect fill="#000000" height="10" width="10" x="20" y="130" /><rect fill="#000000" height="10" width="10" x="40" y="130" /><rect fill="#000000" height="10" width="10" x="70" y="130" /><rect fill="#000000" height="10" width="10" x="110" y="130" /><rect fill="#000000" height="10" width="10" x="130" y="130" /><rect fill="#000000" height="10" width="10" x="140" y="130" /><rect fill="#000000" height="10" width="10" x="150" y="130" /><rect fill="#000000" height="10" width="10" x="160" y="130" /><rect fill="#000000" height="10" width="10" x="200" y="130" /><rect fill="#000000" height="10" width="10" x="210" y="130" /><rect fill="#000000" height="10" width="10" x="220" y="130" /><rect fill="#000000" height="10" width="10" x="250" y="130" /><rect fill="#000000" height="10" width="10" x="270" y="130" /><rect fill="#000000" height="10" width="10" x="290" y="130" /><rect fill="#000000" height="10" width="10" x="300" y="130" /><rect fill="#000000" height="10" width="10" x="310" y="130" /><rect fill="#000000" height="10" width="10" x="330" y="130" /><rect fill="#000000" height="10" width="10" x="340" y="130" /><rect fill="#000000" height="10" width="10" x="360" y="130" /><rect fill="#000000" height="10" width="10" x="370" y="130" /><rect fill="#000000" height="10" width="10" x="30" y="140" /><rect fill="#000000" height="10" width="10" x="40" y="140" /><rect fill="#000000" height="10" width="10" x="110" y="140" /><rect fill="#000000" height="10" width="10" x="120" y="140" /><rect fill="#000000" height="10" width="10" x="130" y="140" /><rect fill="#000000" height="10" width="10" x="140" y="140" /><rect fill="#000000" height="10" width="10" x="160" y="140" /><rect fill="#000000" height="10" width="10" x="170" y="140" /><rect fill="#000000" height="10" width="10" x="190" y="140" /><rect fill="#000000" height="10" width="10" x="230" y="140" /><rect fill="#000000" height="10" width="10" x="280" y="140" /><rect fill="#000000" height="10" width="10" x="320" y="140" /><rect fill="#000000" height="10" width="10" x="360" y="140" /><rect fill="#000000" height="10" width="10" x="370" y="140" /><rect fill="#000000" height="10" width="10" x="10" y="150" /><rect fill="#000000" height="10" width="10" x="30" y="150" /><rect fill="#000000" height="10" width="10" x="50" y="150" /><rect fill="#000000" height="10" width="10" x="60" y="150" /><rect fill="#000000" height="10" width="10" x="70" y="150" /><rect fill="#000000" height="10" width="10" x="80" y="150" /><rect fill="#000000" height="10" width="10" x="100" y="150" /><rect fill="#000000" height="10" width="10" x="110" y="150" /><rect fill="#000000" height="10" width="10" x="130" y="150" /><rect fill="#000000" height="10" width="10" x="190" y="150" /><rect fill="#000000" height="10" width="10" x="210" y="150" /><rect fill="#000000" height="10" width="10" x="230" y="150" /><rect fill="#000000" height="10" width="10" x="240" y="150" /><rect fill="#000000" height="10" width="10" x="250" y="150" /><rect fill="#000000" height="10" width="10" x="280" y="150" /><rect fill="#000000" height="10" width="10" x="290" y="150" /><rect fill="#000000" height="10" width="10" x="310" y="150" /><rect fill="#000000" height="10" width="10" x="320" y="150" /><rect fill="#000000" height="10" width="10" x="330" y="150" /><rect fill="#000000" height="10" width="10" x="340" y="150" /><rect fill="#000000" height="10" width="10" x="370" y="150" /><rect fill="#000000" height="10" width="10" x="10" y="160" /><rect fill="#000000" height="10" width="10" x="50" y="160" /><rect fill="#000000" height="10" width="10" x="60" y="160" /><rect fill="#000000" height="10" width="10" x="140" y="160" /><rect fill="#000000" height="10" width="10" x="170" y="160" /><rect fill="#000000" height="10" width="10" x="240" y="160" /><rect fill="#000000" height="10" width="10" x="270" y="160" /><rect fill="#000000" height="10" width="10" x="280" y="160" /><rect fill="#000000" height="10" width="10" x="300" y="160" /><rect fill="#000000" height="10" width="10" x="310" y="160" /><rect fill="#000000" height="10" width="10" x="320" y="160" /><rect fill="#000000" height="10" width="10" x="330" y="160" /><rect fill="#000000" height="10" width="10" x="360" y="160" /><rect fill="#000000" height="10" width="10" x="370" y="160" /><rect fill="#000000" height="10" width="10" x="10" y="170" /><rect fill="#000000" height="10" width="10" x="60" y="170" /><rect fill="#000000" height="10" width="10" x="70" y="170" /><rect fill="#000000" height="10" width="10" x="80" y="170" /><rect fill="#000000" height="10" width="10" x="90" y="170" /><rect fill="#000000" height="10" width="10" x="120" y="170" /><rect fill="#000000" height="10" width="10" x="140" y="170" /><rect fill="#000000" height="10" width="10" x="190" y="170" /><rect fill="#000000" height="10" width="10" x="210" y="170" /><rect fill="#000000" height="10" width="10" x="220" y="170" /><rect fill="#000000" height="10" width="10" x="230" y="170" /><rect fill="#000000" height="10" width="10" x="240" y="170" /><rect fill="#000000" height="10" width="10" x="250" y="170" /><rect fill="#000000" height="10" width="10" x="280" y="170" /><rect fill="#000000" height="10" width="10" x="290" y="170" /><rect fill="#000000" height="10" width="10" x="310" y="170" /><rect fill="#000000" height="10" width="10" x="320" y="170" /><rect fill="#000000" height="10" width="10" x="350" y="170" /><rect fill="#000000" height="10" width="10" x="370" y="170" /><rect fill="#000000" height="10" width="10" x="20" y="180" /><rect fill="#000000" height="10" width="10" x="40" y="180" /><rect fill="#000000" height="10" width="10" x="50" y="180" /><rect fill="#000000" height="10" width="10" x="80" y="180" /><rect fill="#000000" height="10" width="10" x="90" y="180" /><rect fill="#000000" height="10" width="10" x="100" y="180" /><rect fill="#000000" height="10" width="10" x="120" y="180" /><rect fill="#000000" height="10" width="10" x="140" y="180" /><rect fill="#000000" height="10" width="10" x="160" y="180" /><rect fill="#000000" height="10" width="10" x="170" y="180" /><rect fill="#000000" height="10" width="10" x="270" y="180" /><rect fill="#000000" height="10" width="10" x="280" y="180" /><rect fill="#000000" height="10" width="10" x="300" y="180" /><rect fill="#000000" height="10" width="10" x="310" y="180" /><rect fill="#000000" height="10" width="10" x="340" y="180" /><rect fill="#000000" height="10" width="10" x="360" y="180" /><rect fill="#000000" height="10" width="10" x="20" y="190" /><rect fill="#000000" height="10" width="10" x="30" y="190" /><rect fill="#000000" height="10" width="10" x="40" y="190" /><rect fill="#000000" height="10" width="10" x="60" y="190" /><rect fill="#000000" height="10" width="10" x="70" y="190" /><rect fill="#000000" height="10" width="10" x="90" y="190" /><rect fill="#000000" height="10" width="10" x="100" y="190" /><rect fill="#000000" height="10" width="10" x="150" y="190" /><rect fill="#000000" height="10" width="10" x="190" y="190" /><rect fill="#000000" height="10" width="10" x="210" y="190" /><rect fill="#000000" height="10" width="10" x="230" y="190" /><rect fill="#000000" height="10" width="10" x="240" y="190" /><rect fill="#000000" height="10" width="10" x="250" y="190" /><rect fill="#000000" height="10" width="10" x="280" y="190" /><rect fill="#000000" height="10" width="10" x="290" y="190" /><rect fill="#000000" height="10" width="10" x="310" y="190" /><rect fill="#000000" height="10" width="10" x="320" y="190" /><rect fill="#000000" height="10" width="10" x="360" y="190" /><rect fill="#000000" height="10" width="10" x="370" y="190" /><rect fill="#000000" height="10" width="10" x="20" y="200" /><rect fill="#000000" height="10" width="10" x="30" y="200" /><rect fill="#000000" height="10" width="10" x="40" y="200" /><rect fill="#000000" height="10" width="10" x="80" y="200" /><rect fill="#000000" height="10" width="10" x="100" y="200" /><rect fill="#000000" height="10" width="10" x="140" y="200" /><rect fill="#000000" height="10" width="10" x="170" y="200" /><rect fill="#000000" height="10" width="10" x="240" y="200" /><rect fill="#000000" height="10" width="10" x="270" y="200" /><rect fill="#000000" height="10" width="10" x="280" y="200" /><rect fill="#000000" height="10" width="10" x="300" y="200" /><rect fill="#000000" height="10" width="10" x="310" y="200" /><rect fill="#000000" height="10" width="10" x="340" y="200" /><rect fill="#000000" height="10" width="10" x="370" y="200" /><rect fill="#000000" height="10" width="10" x="20" y="210" /><rect fill="#000000" height="10" width="10" x="70" y="210" /><rect fill="#000000" height="10" width="10" x="80" y="210" /><rect fill="#000000" height="10" width="10" x="90" y="210" /><rect fill="#000000" height="10" width="10" x="130" y="210" /><rect fill="#000000" height="10" width="10" x="170" y="210" /><rect fill="#000000" height="10" width="10" x="190" y="210" /><rect fill="#000000" height="10" width="10" x="220" y="210" /><rect fill="#000000" height="10" width="10" x="230" y="210" /><rect fill="#000000" height="10" width="10" x="240" y="210" /><rect fill="#000000" height="10" width="10" x="280" y="210" /><rect fill="#000000" height="10" width="10" x="300" y="210" /><rect fill="#000000" height="10" width="10" x="310" y="210" /><rect fill="#000000" height="10" width="10" x="330" y="210" /><rect fill="#000000" height="10" width="10" x="10" y="220" /><rect fill="#000000" height="10" width="10" x="20" y="220" /><rect fill="#000000" height="10" width="10" x="30" y="220" /><rect fill="#000000" height="10" width="10" x="40" y="220" /><rect fill="#000000" height="10" width="10" x="60" y="220" /><rect fill="#000000" height="10" width="10" x="90" y="220" /><rect fill="#000000" height="10" width="10" x="110" y="220" /><rect fill="#000000" height="10" width="10" x="130" y="220" /><rect fill="#000000" height="10" width="10" x="150" y="220" /><rect fill="#000000" height="10" width="10" x="160" y="220" /><rect fill="#000000" height="10" width="10" x="180" y="220" /><rect fill="#000000" height="10" width="10" x="210" y="220" /><rect fill="#000000" height="10" width="10" x="220" y="220" /><rect fill="#000000" height="10" width="10" x="250" y="220" /><rect fill="#000000" height="10" width="10" x="260" y="220" /><rect fill="#000000" height="10" width="10" x="270" y="220" /><rect fill="#000000" height="10" width="10" x="280" y="220" /><rect fill="#000000" height="10" width="10" x="290" y="220" /><rect fill="#000000" height="10" width="10" x="340" y="220" /><rect fill="#000000" height="10" width="10" x="370" y="220" /><rect fill="#000000" height="10" width="10" x="40" y="230" /><rect fill="#000000" height="10" width="10" x="70" y="230" /><rect fill="#000000" height="10" width="10" x="80" y="230" /><rect fill="#000000" height="10" width="10" x="90" y="230" /><rect fill="#000000" height="10" width="10" x="110" y="230" /><rect fill="#000000" height="10" width="10" x="120" y="230" /><rect fill="#000000" height="10" width="10" x="140" y="230" /><rect fill="#000000" height="10" width="10" x="160" y="230" /><rect fill="#000000" height="10" width="10" x="170" y="230" /><rect fill="#000000" height="10" width="10" x="180" y="230" /><rect fill="#000000" height="10" width="10" x="200" y="230" /><rect fill="#000000" height="10" width="10" x="220" y="230" /><rect fill="#000000" height="10" width="10" x="260" y="230" /><rect fill="#000000" height="10" width="10" x="270" y="230" /><rect fill="#000000" height="10" width="10" x="300" y="230" /><rect fill="#000000" height="10" width="10" x="320" y="230" /><rect fill="#000000" height="10" width="10" x="330" y="230" /><rect fill="#000000" height="10" width="10" x="340" y="230" /><rect fill="#000000" height="10" width="10" x="360" y="230" /><rect fill="#000000" height="10" width="10" x="60" y="240" /><rect fill="#000000" height="10" width="10" x="110" y="240" /><rect fill="#000000" height="10" width="10" x="120" y="240" /><rect fill="#000000" height="10" width="10" x="160" y="240" /><rect fill="#000000" height="10" width="10" x="180" y="240" /><rect fill="#000000" height="10" width="10" x="190" y="240" /><rect fill="#000000" height="10" width="10" x="200" y="240" /><rect fill="#000000" height="10" width="10" x="210" y="240" /><rect fill="#000000" height="10" width="10" x="220" y="240" /><rect fill="#000000" height="10" width="10" x="230" y="240" /><rect fill="#000000" height="10" width="10" x="250" y="240" /><rect fill="#000000" height="10" width="10" x="260" y="240" /><rect fill="#000000" height="10" width="10" x="290" y="240" /><rect fill="#000000" height="10" width="10" x="320" y="240" /><rect fill="#000000" height="10" width="10" x="330" y="240" /><rect fill="#000000" height="10" width="10" x="10" y="250" /><rect fill="#000000" height="10" width="10" x="20" y="250" /><rect fill="#000000" height="10" width="10" x="50" y="250" /><rect fill="#000000" height="10" width="10" x="60" y="250" /><rect fill="#000000" height="10" width="10" x="70" y="250" /><rect fill="#000000" height="10" width="10" x="90" y="250" /><rect fill="#000000" height="10" width="10" x="110" y="250" /><rect fill="#000000" height="10" width="10" x="130" y="250" /><rect fill="#000000" height="10" width="10" x="140" y="250" /><rect fill="#000000" height="10" width="10" x="160" y="250" /><rect fill="#000000" height="10" width="10" x="170" y="250" /><rect fill="#000000" height="10" width="10" x="200" y="250" /><rect fill="#000000" height="10" width="10" x="220" y="250" /><rect fill="#000000" height="10" width="10" x="270" y="250" /><rect fill="#000000" height="10" width="10" x="300" y="250" /><rect fill="#000000" height="10" width="10" x="350" y="250" /><rect fill="#000000" height="10" width="10" x="360" y="250" /><rect fill="#000000" height="10" width="10" x="10" y="260" /><rect fill="#000000" height="10" width="10" x="30" y="260" /><rect fill="#000000" height="10" width="10" x="40" y="260" /><rect fill="#000000" height="10" width="10" x="50" y="260" /><rect fill="#000000" height="10" width="10" x="130" y="260" /><rect fill="#000000" height="10" width="10" x="160" y="260" /><rect fill="#000000" height="10" width="10" x="180" y="260" /><rect fill="#000000" height="10" width="10" x="190" y="260" /><rect fill="#000000" height="10" width="10" x="210" y="260" /><rect fill="#000000" height="10" width="10" x="220" y="260" /><rect fill="#000000" height="10" width="10" x="230" y="260" /><rect fill="#000000" height="10" width="10" x="250" y="260" /><rect fill="#000000" height="10" width="10" x="260" y="260" /><rect fill="#000000" height="10" width="10" x="280" y="260" /><rect fill="#000000" height="10" width="10" x="290" y="260" /><rect fill="#000000" height="10" width="10" x="310" y="260" /><rect fill="#000000" height="10" width="10" x="320" y="260" /><rect fill="#000000" height="10" width="10" x="330" y="260" /><rect fill="#000000" height="10" width="10" x="350" y="260" /><rect fill="#000000" height="10" width="10" x="10" y="270" /><rect fill="#000000" height="10" width="10" x="30" y="270" /><rect fill="#000000" height="10" width="10" x="70" y="270" /><rect fill="#000000" height="10" width="10" x="110" y="270" /><rect fill="#000000" height="10" width="10" x="140" y="270" /><rect fill="#000000" height="10" width="10" x="160" y="270" /><rect fill="#000000" height="10" width="10" x="170" y="270" /><rect fill="#000000" height="10" width="10" x="180" y="270" /><rect fill="#000000" height="10" width="10" x="200" y="270" /><rect fill="#000000" height="10" width="10" x="220" y="270" /><rect fill="#000000" height="10" width="10" x="260" y="270" /><rect fill="#000000" height="10" width="10" x="270" y="270" /><rect fill="#000000" height="10" width="10" x="300" y="270" /><rect fill="#000000" height="10" width="10" x="310" y="270" /><rect fill="#000000" height="10" width="10" x="330" y="270" /><rect fill="#000000" height="10" width="10" x="340" y="270" /><rect fill="#000000" height="10" width="10" x="350" y="270" /><rect fill="#000000" height="10" width="10" x="360" y="270" /><rect fill="#000000" height="10" width="10" x="370" y="270" /><rect fill="#000000" height="10" width="10" x="10" y="280" /><rect fill="#000000" height="10" width="10" x="30" y="280" /><rect fill="#000000" height="10" width="10" x="90" y="280" /><rect fill="#000000" height="10" width="10" x="100" y="280" /><rect fill="#000000" height="10" width="10" x="140" y="280" /><rect fill="#000000" height="10" width="10" x="150" y="280" /><rect fill="#000000" height="10" width="10" x="160" y="280" /><rect fill="#000000" height="10" width="10" x="180" y="280" /><rect fill="#000000" height="10" width="10" x="190" y="280" /><rect fill="#000000" height="10" width="10" x="200" y="280" /><rect fill="#000000" height="10" width="10" x="210" y="280" /><rect fill="#000000" height="10" width="10" x="220" y="280" /><rect fill="#000000" height="10" width="10" x="230" y="280" /><rect fill="#000000" height="10" width="10" x="250" y="280" /><rect fill="#000000" height="10" width="10" x="260" y="280" /><rect fill="#000000" height="10" width="10" x="290" y="280" /><rect fill="#000000" height="10" width="10" x="320" y="280" /><rect fill="#000000" height="10" width="10" x="330" y="280" /><rect fill="#000000" height="10" width="10" x="350" y="280" /><rect fill="#000000" height="10" width="10" x="370" y="280" /><rect fill="#000000" height="10" width="10" x="10" y="290" /><rect fill="#000000" height="10" width="10" x="50" y="290" /><rect fill="#000000" height="10" width="10" x="60" y="290" /><rect fill="#000000" height="10" width="10" x="70" y="290" /><rect fill="#000000" height="10" width="10" x="80" y="290" /><rect fill="#000000" height="10" width="10" x="90" y="290" /><rect fill="#000000" height="10" width="10" x="110" y="290" /><rect fill="#000000" height="10" width="10" x="140" y="290" /><rect fill="#000000" height="10" width="10" x="150" y="290" /><rect fill="#000000" height="10" width="10" x="160" y="290" /><rect fill="#000000" height="10" width="10" x="200" y="290" /><rect fill="#000000" height="10" width="10" x="210" y="290" /><rect fill="#000000" height="10" width="10" x="220" y="290" /><rect fill="#000000" height="10" width="10" x="250" y="290" /><rect fill="#000000" height="10" width="10" x="270" y="290" /><rect fill="#000000" height="10" width="10" x="290" y="290" /><rect fill="#000000" height="10" width="10" x="300" y="290" /><rect fill="#000000" height="10" width="10" x="310" y="290" /><rect fill="#000000" height="10" width="10" x="320" y="290" /><rect fill="#000000" height="10" width="10" x="330" y="290" /><rect fill="#000000" height="10" width="10" x="340" y="290" /><rect fill="#000000" height="10" width="10" x="360" y="290" /><rect fill="#000000" height="10" width="10" x="90" y="300" /><rect fill="#000000" height="10" width="10" x="130" y="300" /><rect fill="#000000" height="10" width="10" x="150" y="300" /><rect fill="#000000" height="10" width="10" x="160" y="300" /><rect fill="#000000" height="10" width="10" x="170" y="300" /><rect fill="#000000" height="10" width="10" x="190" y="300" /><rect fill="#000000" height="10" width="10" x="230" y="300" /><rect fill="#000000" height="10" width="10" x="280" y="300" /><rect fill="#000000" height="10" width="10" x="290" y="300" /><rect fill="#000000" height="10" width="10" x="330" y="300" /><rect fill="#000000" height="10" width="10" x="340" y="300" /><rect fill="#000000" height="10" width="10" x="360" y="300" /><rect fill="#000000" height="10" width="10" x="370" y="300" /><rect fill="#000000" height="10" width="10" x="10" y="310" /><rect fill="#000000" height="10" width="10" x="20" y="310" /><rect fill="#000000" height="10" width="10" x="30" y="310" /><rect fill="#000000" height="10" width="10" x="40" y="310" /><rect fill="#000000" height="10" width="10" x="50" y="310" /><rect fill="#000000" height="10" width="10" x="60" y="310" /><rect fill="#000000" height="10" width="10" x="70" y="310" /><rect fill="#000000" height="10" width="10" x="100" y="310" /><rect fill="#000000" height="10" width="10" x="110" y="310" /><rect fill="#000000" height="10" width="10" x="190" y="310" /><rect fill="#000000" height="10" width="10" x="210" y="310" /><rect fill="#000000" height="10" width="10" x="230" y="310" /><rect fill="#000000" height="10" width="10" x="240" y="310" /><rect fill="#000000" height="10" width="10" x="250" y="310" /><rect fill="#000000" height="10" width="10" x="280" y="310" /><rect fill="#000000" height="10" width="10" x="290" y="310" /><rect fill="#000000" height="10" width="10" x="310" y="310" /><rect fill="#000000" height="10" width="10" x="330" y="310" /><rect fill="#000000" height="10" width="10" x="350" y="310" /><rect fill="#000000" height="10" width="10" x="370" y="310" /><rect fill="#000000" height="10" width="10" x="10" y="320" /><rect fill="#000000" height="10" width="10" x="70" y="320" /><rect fill="#000000" height="10" width="10" x="90" y="320" /><rect fill="#000000" height="10" width="10" x="100" y="320" /><rect fill="#000000" height="10" width="10" x="110" y="320" /><rect fill="#000000" height="10" width="10" x="120" y="320" /><rect fill="#000000" height="10" width="10" x="140" y="320" /><rect fill="#000000" height="10" width="10" x="150" y="320" /><rect fill="#000000" height="10" width="10" x="170" y="320" /><rect fill="#000000" height="10" width="10" x="240" y="320" /><rect fill="#000000" height="10" width="10" x="270" y="320" /><rect fill="#000000" height="10" width="10" x="280" y="320" /><rect fill="#000000" height="10" width="10" x="290" y="320" /><rect fill="#000000" height="10" width="10" x="330" y="320" /><rect fill="#000000" height="10" width="10" x="340" y="320" /><rect fill="#000000" height="10" width="10" x="360" y="320" /><rect fill="#000000" height="10" width="10" x="370" y="320" /><rect fill="#000000" height="10" width="10" x="10" y="330" /><rect fill="#000000" height="10" width="10" x="30" y="330" /><rect fill="#000000" height="10" width="10" x="40" y="330" /><rect fill="#000000" height="10" width="10" x="50" y="330" /><rect fill="#000000" height="10" width="10" x="70" y="330" /><rect fill="#000000" height="10" width="10" x="90" y="330" /><rect fill="#000000" height="10" width="10" x="100" y="330" /><rect fill="#000000" height="10" width="10" x="110" y="330" /><rect fill="#000000" height="10" width="10" x="130" y="330" /><rect fill="#000000" height="10" width="10" x="190" y="330" /><rect fill="#000000" height="10" width="10" x="210" y="330" /><rect fill="#000000" height="10" width="10" x="220" y="330" /><rect fill="#000000" height="10" width="10" x="230" y="330" /><rect fill="#000000" height="10" width="10" x="240" y="330" /><rect fill="#000000" height="10" width="10" x="250" y="330" /><rect fill="#000000" height="10" width="10" x="280" y="330" /><rect fill="#000000" height="10" width="10" x="290" y="330" /><rect fill="#000000" height="10" width="10" x="300" y="330" /><rect fill="#000000" height="10" width="10" x="310" y="330" /><rect fill="#000000" height="10" width="10" x="320" y="330" /><rect fill="#000000" height="10" width="10" x="330" y="330" /><rect fill="#000000" height="10" width="10" x="350" y="330" /><rect fill="#000000" height="10" width="10" x="370" y="330" /><rect fill="#000000" height="10" width="10" x="10" y="340" /><rect fill="#000000" height="10" width="10" x="30" y="340" /><rect fill="#000000" height="10" width="10" x="40" y="340" /><rect fill="#000000" height="10" width="10" x="50" y="340" /><rect fill="#000000" height="10" width="10" x="70" y="340" /><rect fill="#000000" height="10" width="10" x="90" y="340" /><rect fill="#000000" height="10" width="10" x="100" y="340" /><rect fill="#000000" height="10" width="10" x="110" y="340" /><rect fill="#000000" height="10" width="10" x="140" y="340" /><rect fill="#000000" height="10" width="10" x="150" y="340" /><rect fill="#000000" height="10" width="10" x="160" y="340" /><rect fill="#000000" height="10" width="10" x="170" y="340" /><rect fill="#000000" height="10" width="10" x="270" y="340" /><rect fill="#000000" height="10" width="10" x="280" y="340" /><rect fill="#000000" height="10" width="10" x="290" y="340" /><rect fill="#000000" height="10" width="10" x="300" y="340" /><rect fill="#000000" height="10" width="10" x="310" y="340" /><rect fill="#000000" height="10" width="10" x="330" y="340" /><rect fill="#000000" height="10" width="10" x="340" y="340" /><rect fill="#000000" height="10" width="10" x="370" y="340" /><rect fill="#000000" height="10" width="10" x="10" y="350" /><rect fill="#000000" height="10" width="10" x="30" y="350" /><rect fill="#000000" height="10" width="10" x="40" y="350" /><rect fill="#000000" height="10" width="10" x="50" y="350" /><rect fill="#000000" height="10" width="10" x="70" y="350" /><rect fill="#000000" height="10" width="10" x="90" y="350" /><rect fill="#000000" height="10" width="10" x="100" y="350" /><rect fill="#000000" height="10" width="10" x="190" y="350" /><rect fill="#000000" height="10" width="10" x="210" y="350" /><rect fill="#000000" height="10" width="10" x="230" y="350" /><rect fill="#000000" height="10" width="10" x="240" y="350" /><rect fill="#000000" height="10" width="10" x="250" y="350" /><rect fill="#000000" height="10" width="10" x="370" y="350" /><rect fill="#000000" height="10" width="10" x="10" y="360" /><rect fill="#000000" height="10" width="10" x="70" y="360" /><rect fill="#000000" height="10" width="10" x="110" y="360" /><rect fill="#000000" height="10" width="10" x="130" y="360" /><rect fill="#000000" height="10" width="10" x="150" y="360" /><rect fill="#000000" height="10" width="10" x="170" y="360" /><rect fill="#000000" height="10" width="10" x="240" y="360" /><rect fill="#000000" height="10" width="10" x="270" y="360" /><rect fill="#000000" height="10" width="10" x="310" y="360" /><rect fill="#000000" height="10" width="10" x="330" y="360" /><rect fill="#000000" height="10" width="10" x="340" y="360" /><rect fill="#000000" height="10" width="10" x="370" y="360" /><rect fill="#000000" height="10" width="10" x="10" y="370" /><rect fill="#000000" height="10" width="10" x="20" y="370" /><rect fill="#000000" height="10" width="10" x="30" y="370" /><rect fill="#000000" height="10" width="10" x="40" y="370" /><rect fill="#000000" height="10" width="10" x="50" y="370" /><rect fill="#000000" height="10" width="10" x="60" y="370" /><rect fill="#000000" height="10" width="10" x="70" y="370" /><rect fill="#000000" height="10" width="10" x="90" y="370" /><rect fill="#000000" height="10" width="10" x="130" y="370" /><rect fill="#000000" height="10" width="10" x="140" y="370" /><rect fill="#000000" height="10" width="10" x="170" y="370" /><rect fill="#000000" height="10" width="10" x="190" y="370" /><rect fill="#000000" height="10" width="10" x="220" y="370" /><rect fill="#000000" height="10" width="10" x="230" y="370" /><rect fill="#000000" height="10" width="10" x="240" y="370" /><rect fill="#000000" height="10" width="10" x="280" y="370" /><rect fill="#000000" height="10" width="10" x="300" y="370" /><rect fill="#000000" height="10" width="10" x="310" y="370" /><rect fill="#000000" height="10" width="10" x="330" y="370" /><rect fill="#000000" height="10" width="10" x="360" y="370" /><rect fill="#000000" height="10" width="10" x="370" y="370" /></svg>